<?xml version="1.0" standalone="no"?>
<!DOCTYPE svg PUBLIC "-//W3C//DTD SVG 20010904//EN"
 "http://www.w3.org/TR/2001/REC-SVG-20010904/DTD/svg10.dtd">
<svg version="1.0" xmlns="http://www.w3.org/2000/svg"
 width="400.000000pt" height="400.000000pt" viewBox="0 0 400.000000 400.000000"
 preserveAspectRatio="xMidYMid meet">
<metadata>
Created by potrace 1.11, written by Peter Selinger 2001-2013
</metadata>
<g transform="translate(0.000000,400.000000) scale(0.100000,-0.100000)"
fill="#000000" stroke="none">
<path d="M1766 3990 c-729 -91 -1349 -566 -1622 -1242 -93 -231 -133 -425
-141 -683 -8 -254 20 -461 93 -681 238 -718 826 -1225 1574 -1359 125 -22 406
-31 538 -16 740 81 1371 557 1648 1243 93 231 133 425 141 683 8 254 -20 461
-93 681 -238 718 -824 1224 -1574 1359 -109 20 -453 29 -564 15z m822 -1185
c176 -42 268 -141 292 -317 18 -125 -14 -248 -86 -343 l-27 -36 57 -50 c98
-88 138 -162 156 -289 28 -199 -63 -386 -225 -462 -120 -56 -149 -57 -967 -58
l-748 0 0 785 0 785 743 0 c619 0 752 -3 805 -15z"/>
<path d="M1440 2364 l0 -165 473 3 c523 3 518 3 553 70 22 43 22 154 0 197
-32 61 -35 61 -556 61 l-470 0 0 -166z"/>
<path d="M1440 1730 l0 -170 513 0 c481 0 515 2 554 19 55 25 73 62 73 146 0
82 -19 128 -62 152 -30 17 -73 18 -555 21 l-523 3 0 -171z"/>
</g>
</svg>
